<svg xmlns="http://www.w3.org/2000/svg" shape-rendering="geometricPrecision" text-rendering="geometricPrecision" image-rendering="optimizeQuality" fill-rule="evenodd" clip-rule="evenodd" viewBox="0 0 394 511.98"><path fill="#3E7D52" d="M158.912 88.115c-7.903-23.315-15.02-46.892-21.026-70.838 22.398-24.583 108.964-21.316 133.86-.384l-23.05 54.803c12.396-16.286 16.563-22.97 23.958-32.043a71.446 71.446 0 018.787 6.814c6.557 5.936 12.412 12.495 13.597 21.638.768 5.929-.927 11.952-6.203 18.111l-52.884 61.595c-6.807-1.116-13.459-2.75-19.914-5.044 2.999-7.058 6.616-14.823 9.615-21.882l-19.253 20.795c-20.058-4.232-36.188-1.707-51.219 6.242l-53.632-64.366c-3.186-3.839-4.636-7.678-4.624-11.517.051-15.559 23.218-28.987 35.396-34.07l26.592 50.146z"/><path fill="#366F49" d="M139.295 22.806l-1.408-5.53C143 11.665 151.46 7.507 161.763 4.679c5.995 22.606 12.85 44.928 20.344 67.037l-29.499-55.63c-3.764 1.569-8.476 3.862-13.313 6.72zm109.086 110.528l-12.431 14.478c-6.806-1.117-13.459-2.75-19.912-5.045 1.85-4.358 3.936-8.983 5.968-13.548 4.105.354 8.356.988 12.779 1.921l21.364-23.07c-3.329 7.831-7.343 16.447-10.667 24.276.963.343 1.929.672 2.899.988zm-30.215-4.365l-11.768 12.711c-20.057-4.231-36.186-1.706-51.217 6.243l-53.633-64.368c-3.185-3.839-4.636-7.676-4.623-11.516.03-9.258 8.247-17.761 17.463-24.201-.668 1.974-1.042 3.993-1.049 6.045-.013 4.259 1.595 8.516 5.128 12.775l59.5 71.407c12.315-6.511 25.294-9.743 40.199-9.096z"/><path fill="#3E7D52" d="M227.639 204.409l-10.467-47.871c44.832 8.338 116.691 99.534 139.911 140.998 11.852 21.164 22.232 44.48 30.731 70.545 16.931 63.08.622 122.093-67.807 135.838-42.877 8.614-122.838 9.224-167.93 6.891-48.476-2.509-123.494-2.432-143.09-52.204-31.628-80.338 26.319-176.045 79.155-234.623 6.952-7.708 14.141-14.892 21.579-21.522 19.219-16.91 39.943-36.976 64.682-45.319l-23.895 44.495 34.705-46.011h18.288l24.138 48.783z"/><path fill="#499560" d="M227.64 204.408l-10.467-47.871c100.985 37.366 274.435 303.922 75.77 306.108-337.547 3.716-272.661-41.47-183.221-260.184 19.219-16.909 39.944-36.976 64.681-45.32l-23.896 44.496 34.707-46.01h18.287l24.139 48.781z"/><path fill="#3E7D52" d="M227.64 204.408l-4.535-20.74c78.872 60.049 179.837 226.097 103.746 274.941-9.691 2.5-20.964 2.775-33.908 4.036-342.946 33.418-276.078-22.116-183.221-260.184 12.559-11.05 25.761-23.448 40.305-33.041l-22.496 41.89 34.707-46.009h7.782l-19.513 36.336 27.41-36.336h2.608l24.139 48.78-10.467-47.871c6.331 2.637 13.063 6.403 20.031 11.094l13.412 27.104z"/><circle fill="#68BE7C" transform="scale(24.9353) rotate(-61.974 15.208 .304)" r="3.937"/><path fill="#3E7D52" fill-rule="nonzero" d="M236.365 331.592c-1.757 3.174-3.708 5.952-5.844 8.328-2.242 2.495-4.719 4.575-7.421 6.233l-.316.177a45.154 45.154 0 01-7.868 3.701 51.174 51.174 0 01-4.689 1.435v38.061c0 1.835-.369 3.556-1.105 5.136l-.275.516a11.898 11.898 0 01-2.97 3.627c-1.216 1.008-2.508 1.789-3.87 2.335-1.479.594-2.982.895-4.501.895h-6.843c-3.544 0-7.206-1.274-10.876-3.814l-.19-.136a32.282 32.282 0 01-4.519-3.807 40.624 40.624 0 01-4.203-5.023l-.086-.126a50.234 50.234 0 01-3.476-5.608 50.421 50.421 0 01-2.843-6.284 39.048 39.048 0 01-1.962-7.009 40.067 40.067 0 01-.664-7.191c0-2.657.336-5.099.99-7.31.708-2.391 1.803-4.479 3.266-6.254l.051-.06a18.25 18.25 0 01-4.323-1.024c-2.216-.827-4.122-2.077-5.694-3.733-1.507-1.582-2.642-3.309-3.408-5.184l-.172-.493a15.86 15.86 0 01-.993-5.548c0-2.169.39-4.232 1.165-6.173.774-1.933 1.931-3.695 3.468-5.257 1.54-1.562 3.306-2.755 5.258-3.549a15.932 15.932 0 013.86-1.024l-3.299-6.437a5.244 5.244 0 011.074-6.249l25.934-27.586a5.208 5.208 0 013.806-1.643l2.942-.015c1.206 0 2.318.409 3.203 1.095l15.708 10.709a5.231 5.231 0 017.07 1.206l3.14 4.547a5.227 5.227 0 01-.554 6.609l-12.163 12.482a5.202 5.202 0 01-3.331 1.564c.404.923.712 1.848.93 2.771a17.23 17.23 0 01.455 3.935v8.933a34.002 34.002 0 003.402-1.261l.233-.094c1.256-.564 2.552-1.38 3.879-2.434 1.532-1.216 3.069-2.715 4.606-4.484a5.228 5.228 0 017.156-.708l5.611 4.353a5.24 5.24 0 011.251 6.87z"/><path fill="#fff" fill-rule="nonzero" d="M231.901 328.857c-3.191 5.815-7.021 10.07-11.524 12.836-4.503 2.73-9.644 4.574-15.388 5.531v42.302c0 2.128-.816 3.901-2.448 5.248-1.63 1.347-3.297 2.021-5.035 2.021h-6.843c-2.482 0-5.141-.957-7.907-2.872-2.766-1.879-5.319-4.468-7.624-7.694-2.305-3.192-4.255-6.808-5.78-10.851a34.415 34.415 0 01-2.269-12.339c0-4.362 1.028-7.801 3.05-10.248 2.056-2.446 4.68-3.687 7.871-3.687.39 0 1.064.106 2.022.319.921.212 1.843.709 2.801 1.56.922.815 1.773 2.128 2.482 3.9.744 1.738 1.099 4.184 1.099 7.305 0 2.695-.425 4.716-1.241 6.099-.851 1.347-1.737 2.34-2.73 3.049-.958.709-1.844 1.17-2.695 1.418-.816.213-1.241.639-1.241 1.17 0 .851.177 1.88.532 3.121.355 1.241.922 2.482 1.702 3.758.815 1.241 1.737 2.305 2.801 3.156 1.099.851 2.34 1.312 3.794 1.312v-37.515a215.358 215.358 0 01-9.184-.993c-2.943-.39-6.099-1.205-9.503-2.446-3.758 0-6.666-1.099-8.722-3.262-2.092-2.199-3.121-4.716-3.121-7.624 0-3.049 1.029-5.638 3.121-7.766 2.056-2.091 4.68-3.155 7.765-3.155 2.73 0 5.106.744 7.127 2.234 2.057 1.488 3.297 3.439 3.794 5.886.957.602 2.163 1.134 3.546 1.595 1.383.462 3.121 1.1 5.177 1.915v-5.39c0-3.688-.709-6.205-2.163-7.588-1.454-1.383-3.475-2.092-6.028-2.092-1.064 0-1.95.071-2.766.177-.78.107-1.489.142-2.127.142-1.454 0-2.66-.957-3.581-2.907-.923-1.951-2.27-4.574-4.007-7.907l26.168-27.835h2.943l16.488 11.24c.426.39 1.241.603 2.518.603 1.028 0 1.95-.284 2.801-.922l3.014 4.361-12.162 12.482c-.567 0-1.348-.461-2.376-1.383a74.392 74.392 0 00-3.759-2.944 30.26 30.26 0 00-5.141-3.013 15.242 15.242 0 00-6.489-1.418c-.816 0-1.667.212-2.482.602-.851.355-1.631.922-2.34 1.631a21.865 21.865 0 00-1.951 2.198c-.532.71-1.17 1.632-1.844 2.766 1.88-.354 3.582-.532 5.177-.532 2.696 0 5.142.391 7.34 1.206 2.163.78 4.043 1.809 5.603 3.121 1.56 1.276 2.765 2.73 3.581 4.396.851 1.667 1.242 3.44 1.242 5.283V335.7c3.616-.355 7.162-1.276 10.708-2.801 3.546-1.525 7.056-4.326 10.602-8.404l5.602 4.362z"/></svg>