<svg xmlns="http://www.w3.org/2000/svg" shape-rendering="geometricPrecision" text-rendering="geometricPrecision" image-rendering="optimizeQuality" fill-rule="evenodd" clip-rule="evenodd" viewBox="0 0 512 488.783"><path fill="#2D2222" fill-rule="nonzero" d="M120.009 270.449l12.051-.014c63.731-.22 80.084-.266 144.202 39.975h52.865l.607.039c8.199.556 15.303 3.464 20.534 7.766 4.12 3.387 7.117 7.671 8.624 12.394 1.539 4.827 1.532 10.065-.369 15.239-2.039 5.543-6.262 11.001-13.1 15.714-10.245 7.504-22.03 11.037-34.651 12.373-12.143 1.284-25.049.511-38.085-.652-4.146-.202-6.802 1.433-7.954 3.645a6.503 6.503 0 00-.727 2.848 6.68 6.68 0 00.606 2.937c1.092 2.365 3.823 4.231 8.313 4.248l.329.014c3.377.249 7.065-.117 10.654-.464 2.851-.28 5.663-.557 8.494-.56 15.522-.011 29.622-1.483 41.658-5.966 11.593-4.315 21.385-11.5 28.832-23.019l7.983-18.636a4.658 4.658 0 012.235-2.362l80.598-39.96.61-.249c13.809-4.557 26.473-3.163 36.382 1.894 6.5 3.313 11.824 8.221 15.519 14.076 3.709 5.866 5.784 12.71 5.78 19.859-.003 10.115-4.146 20.807-13.653 30.198l-.536.454c-29.243 21.285-58.94 40.726-89.052 58.412-30.024 17.639-60.374 33.481-91.007 47.61-45.933 27.828-91.851 26.888-137.744.007l-59.998-30.928a16.68 16.68 0 01-4.904 11.795l-.529.479c-2.982 2.741-6.951 4.426-11.292 4.426H16.725c-4.585 0-8.76-1.88-11.792-4.905A16.588 16.588 0 010 437.32V268.736c0-4.582 1.883-8.763 4.922-11.802a16.577 16.577 0 0111.803-4.919h86.559a16.68 16.68 0 0111.817 4.905l.475.525c2.752 2.989 4.433 6.961 4.433 11.291v1.713z"/><path fill="#F6CD45" d="M317.148 0c75.35 0 136.432 61.082 136.432 136.432s-61.082 136.432-136.432 136.432-136.432-61.082-136.432-136.432S241.798 0 317.148 0z"/><path fill="#D19632" d="M317.148 23.867c62.168 0 112.565 50.397 112.565 112.565s-50.397 112.565-112.565 112.565S204.583 198.6 204.583 136.432 254.98 23.867 317.148 23.867z"/><path fill="#DBA47B" fill-rule="nonzero" d="M121.148 279.819v147.578l63.369 32.68c42.858 25.182 85.713 26.094 128.531.092l.568-.312a1027.695 1027.695 0 0090.411-47.27c29.629-17.405 58.983-36.62 88.02-57.738 7.377-7.401 10.604-15.608 10.604-23.261 0-5.337-1.56-10.462-4.348-14.873-2.794-4.43-6.862-8.164-11.852-10.707-7.773-3.964-17.827-5.032-28.966-1.429l-78.68 39.01-7.444 17.374-.365.677c-8.682 13.608-20.115 22.059-33.673 27.105-13.224 4.926-28.381 6.54-44.921 6.554-2.27 0-4.909.262-7.579.525-4.057.393-8.206.801-12.264.486-8.525-.146-13.99-4.348-16.451-9.675a15.95 15.95 0 01-1.45-7.061 15.946 15.946 0 011.79-6.972c2.71-5.195 8.345-9.079 16.679-8.667l.184.018c12.579 1.127 25.006 1.886 36.51.67 11.075-1.171 21.331-4.213 30.084-10.625l.128-.089c5.167-3.539 8.284-7.447 9.695-11.288 1.156-3.149 1.174-6.312.256-9.189-.951-2.982-2.919-5.748-5.653-7.996-3.781-3.107-9.033-5.221-15.204-5.643h-54.188a4.792 4.792 0 01-2.493-.734c-62.813-39.542-78.421-39.485-140.386-39.276l-10.912.036z"/><path fill="#43494C" d="M16.725 259.147h86.559c5.277 0 9.593 4.316 9.593 9.589V437.32c0 5.277-4.316 9.589-9.593 9.589H16.725c-5.277 0-9.593-4.312-9.593-9.589V268.736c0-5.273 4.316-9.589 9.593-9.589z"/><path fill="#34393E" d="M112.877 333.785v103.534c0 5.277-4.316 9.594-9.594 9.594H16.726c-5.277 0-9.594-4.317-9.594-9.594v-21.536l105.745-81.998z"/><path fill="#A87927" fill-rule="nonzero" d="M251.058 161.386l5.636-47.63h11.669l9.811 33.457 9.812-33.457h11.537l5.703 47.63h-11.988l-3.065-25.7-6.296 25.7h-11.669l-6.241-25.271-2.922 25.271h-11.987zm113.983.286h-.605a57.965 57.965 0 01-3.977-.385 99.304 99.304 0 01-3.747-.571c-1.197-.209-2.374-.517-3.472-.802v-9.889c1.451.132 3.022.231 4.703.319 1.681.087 3.406.153 5.131.197 1.725.044 3.351.066 4.845.066l.295.003a16.03 16.03 0 003.233-.332 4.23 4.23 0 002.109-1.022c1.085-1.15 1.002-3.866-.286-4.813a3.991 3.991 0 00-2.263-.703h-3.484c-4.951 0-8.713-1.098-11.283-3.296-2.572-2.197-3.853-5.86-3.846-10.987v-2.055c0-4.688 1.41-8.2 4.23-10.537a15.999 15.999 0 018.394-3.295v-5.011h6.901v4.889c.867 0 1.714.121 2.538.209 1.769.187 3.439.429 4.999.703 1.561.275 2.956.572 4.197.868v9.889a163.832 163.832 0 00-6.593-.418c-2.45-.099-4.691-.154-6.702-.154h-.139a18.62 18.62 0 00-3.057.254 4.034 4.034 0 00-2.198 1.032c-1.168 1.307-1.071 4.138.263 5.274a4.956 4.956 0 003.142.835h4.231a14.894 14.894 0 017.461 1.691 11.152 11.152 0 014.493 4.616 14.287 14.287 0 011.507 6.385l-.002.207v2.176c0 4.058-.707 7.156-2.12 9.295a10.403 10.403 0 01-6.021 4.329 29.49 29.49 0 01-5.968.998v5.494l-6.921.001v-5.493l.012.033zm-35.72-34.061l7.548-13.855h13.712l-14.8 24.282 14.481 23.348H336.55l-8.317-13.393-7.329 13.393h-13.723l14.525-23.93-14.712-23.7h13.712l8.614 13.877.001-.022z"/><path fill="#FCD553" fill-rule="nonzero" d="M248.235 158.564l5.637-47.63h11.668l9.812 33.456 9.812-33.456h11.537l5.702 47.63h-11.987l-3.065-25.7-6.296 25.7h-11.669l-6.241-25.271-2.922 25.271h-11.988zm113.983.285h-.604a58.603 58.603 0 01-3.977-.384 97.264 97.264 0 01-3.747-.572c-1.198-.208-2.374-.516-3.472-.801v-9.889c1.451.132 3.021.23 4.702.318s3.406.154 5.132.198c1.725.044 3.351.066 4.845.066l.294.003c1.084 0 2.173-.113 3.233-.332a4.23 4.23 0 002.109-1.022c1.086-1.151 1.003-3.866-.285-4.814a4.001 4.001 0 00-2.263-.703l-.078.001h-3.406c-4.952 0-8.713-1.099-11.284-3.296-2.571-2.198-3.852-5.86-3.846-10.987v-2.055c0-4.688 1.411-8.2 4.231-10.537a15.989 15.989 0 018.394-3.296v-5.01h6.9v4.889c.868 0 1.715.121 2.538.209a73.156 73.156 0 019.197 1.571v9.889a163.951 163.951 0 00-13.295-.572h-.14c-1.023 0-2.049.086-3.057.254a4.027 4.027 0 00-2.198 1.032c-1.168 1.306-1.07 4.138.264 5.273a4.946 4.946 0 003.142.836h4.23c.182-.005.367-.011.55-.011 2.407 0 4.781.585 6.911 1.702a11.152 11.152 0 014.494 4.615 14.29 14.29 0 011.506 6.385l-.001.208v2.175c0 4.058-.707 7.157-2.121 9.296a10.402 10.402 0 01-6.02 4.329 29.63 29.63 0 01-5.968.998v5.493l-6.921.002v-5.493l.011.032zm-35.72-34.06l7.548-13.855h13.713l-14.8 24.282 14.481 23.348h-13.712l-8.318-13.394-7.328 13.394h-13.723l14.525-23.931-14.712-23.699h13.712l8.614 13.877v-.022z"/></svg>